<?xml version="1.0" encoding="utf-8"?>
<!-- Generator: Adobe Illustrator 15.1.0, SVG Export Plug-In . SVG Version: 6.00 Build 0)  -->
<!DOCTYPE svg PUBLIC "-//W3C//DTD SVG 1.1//EN" "http://www.w3.org/Graphics/SVG/1.1/DTD/svg11.dtd">
<svg version="1.1" id="Layer_1" xmlns="http://www.w3.org/2000/svg" xmlns:xlink="http://www.w3.org/1999/xlink" x="0px" y="0px"
	 width="116.25px" height="44.068px" viewBox="-35.581 0 116.25 44.068" enable-background="new -35.581 0 116.25 44.068"
	 xml:space="preserve">
<path fill="none" stroke="#D47740" stroke-width="1.44" stroke-linecap="round" stroke-linejoin="round" stroke-miterlimit="22.9256" d="
	M38.483,19.042l0.788,13.605c0.221,3.795-2.361,6.059-6.338,6.059H12.192c-3.974,0-6.569-2.257-6.338-6.059l1.135-18.604"/>
<path fill="none" stroke="#D47740" stroke-width="1.44" stroke-linecap="round" stroke-linejoin="round" stroke-miterlimit="22.9256" d="
	M9.129,19.691l0.083,11.534v0.319c0,1.081,0.898,1.976,1.995,1.976l0,0c1.099,0,1.996-0.901,1.996-1.976v-0.874
	c0-1.073,0.897-1.975,1.995-1.975l0,0c1.098,0,1.996,0.894,1.996,1.975v1.005v3.056c0,1.084,0.897,1.975,1.995,1.975l0,0
	c1.098,0,1.995-0.895,1.995-1.975v-5.188c0-0.581,0.262-1.114,0.677-1.479c0.36-0.354,0.856-0.573,1.402-0.573l0,0
	c1.098,0,1.994,0.89,1.994,1.976v0.189v0.129v0.388c0,1.284,1.054,1.979,2.101,2.011c1.047,0.029,2.099-0.592,2.099-1.938
	l0.004-4.867"/>
<path fill="none" stroke="#D47740" stroke-width="1.44" stroke-linecap="round" stroke-linejoin="round" stroke-miterlimit="22.9256" d="
	M34.854,13.829c2.604,0.382,3.812,2.615,3.668,4.811c-0.79,12.125-33.992,6.87-31.44-5.145c0.531-2.504,1.894-2.694,4.138-2.67"/>
<path fill="none" stroke="#D47740" stroke-width="1.44" stroke-linecap="round" stroke-linejoin="round" stroke-miterlimit="22.9256" d="
	M26.015,8.545c-0.202,2.281-4.68,2.398-5.182,0.014c-0.263-1.25,0.599-2.812,2.833-3.192c2.924-0.497,6.994,1.093,6.674,4.771
	c-0.426,4.871-8.737,4.92-12.417,2.533c-3.028-1.965-1.84-6.251,1.438-5.807l1.608,0.219"/>
<path fill="none" stroke="#D47740" stroke-width="1.44" stroke-linecap="round" stroke-linejoin="round" stroke-miterlimit="22.9256" d="
	M30.41,9.979c2.713,0.252,4.225,1.303,4.213,3.865c-0.047,9.772-23.935,6.881-23.351-2.686c0.12-1.972,1.261-3.235,4.983-2.617"/>
<g>
	<defs>
		<rect id="SVGID_1_" x="-35.581" y="25.027" width="39.55" height="1"/>
	</defs>
	<clipPath id="SVGID_2_">
		<use xlink:href="#SVGID_1_"  overflow="visible"/>
	</clipPath>
	
		<line clip-path="url(#SVGID_2_)" fill="none" stroke="#02BBAE" stroke-linecap="round" stroke-linejoin="round" stroke-dasharray="0,2.945" x1="-33.51" y1="25.527" x2="2.784" y2="25.527"/>
	<path clip-path="url(#SVGID_2_)" fill="none" stroke="#02BBAE" stroke-linecap="round" stroke-linejoin="round" d="M3.668,25.527
		L3.668,25.527 M-35.28,25.527L-35.28,25.527"/>
</g>
<g>
	<defs>
		<rect id="SVGID_3_" x="41.12" y="25.027" width="39.55" height="1"/>
	</defs>
	<clipPath id="SVGID_4_">
		<use xlink:href="#SVGID_3_"  overflow="visible"/>
	</clipPath>
	
		<line clip-path="url(#SVGID_4_)" fill="none" stroke="#02BBAE" stroke-linecap="round" stroke-linejoin="round" stroke-dasharray="0,2.945" x1="43.191" y1="25.527" x2="79.484" y2="25.527"/>
	<path clip-path="url(#SVGID_4_)" fill="none" stroke="#02BBAE" stroke-linecap="round" stroke-linejoin="round" d="M80.369,25.527
		L80.369,25.527 M41.42,25.527L41.42,25.527"/>
</g>
</svg>
