<?xml version="1.0" encoding="utf-8"?>
<!-- Generator: Adobe Illustrator 15.1.0, SVG Export Plug-In . SVG Version: 6.00 Build 0)  -->
<!DOCTYPE svg PUBLIC "-//W3C//DTD SVG 1.1//EN" "http://www.w3.org/Graphics/SVG/1.1/DTD/svg11.dtd">
<svg version="1.1" id="Layer_1" xmlns="http://www.w3.org/2000/svg" xmlns:xlink="http://www.w3.org/1999/xlink" x="0px" y="0px"
	 width="45.339px" height="44.068px" viewBox="0 0 45.339 44.068" enable-background="new 0 0 45.339 44.068" xml:space="preserve">
<path fill="none" stroke="#D47740" stroke-width="1.44" stroke-linecap="round" stroke-linejoin="round" stroke-miterlimit="22.9256" d="
	M38.483,19.042l0.788,13.605c0.22,3.795-2.361,6.059-6.338,6.059H12.192c-3.974,0-6.569-2.257-6.338-6.059l1.135-18.603"/>
<path fill="none" stroke="#D47740" stroke-width="1.44" stroke-linecap="round" stroke-linejoin="round" stroke-miterlimit="22.9256" d="
	M9.129,19.691l0.083,11.534v0.32c0,1.081,0.898,1.975,1.995,1.975l0,0c1.099,0,1.996-0.901,1.996-1.975v-0.874
	c0-1.074,0.897-1.975,1.995-1.975l0,0c1.098,0,1.996,0.894,1.996,1.975v1.005v3.055c0,1.084,0.897,1.975,1.995,1.975l0,0
	c1.098,0,1.995-0.895,1.995-1.975v-5.187c0-0.581,0.262-1.115,0.677-1.479c0.36-0.354,0.856-0.573,1.402-0.573l0,0
	c1.098,0,1.995,0.89,1.995,1.976v0.189v0.129v0.388c0,1.284,1.053,1.979,2.1,2.01c1.047,0.03,2.098-0.591,2.099-1.938l0.004-4.867"
	/>
<path fill="none" stroke="#D47740" stroke-width="1.44" stroke-linecap="round" stroke-linejoin="round" stroke-miterlimit="22.9256" d="
	M34.854,13.829c2.604,0.382,3.811,2.615,3.668,4.81c-0.79,12.125-33.992,6.871-31.44-5.144c0.531-2.504,1.894-2.694,4.138-2.67"/>
<path fill="none" stroke="#D47740" stroke-width="1.44" stroke-linecap="round" stroke-linejoin="round" stroke-miterlimit="22.9256" d="
	M26.015,8.545c-0.202,2.281-4.68,2.398-5.182,0.013c-0.263-1.25,0.599-2.812,2.832-3.192c2.924-0.497,6.995,1.093,6.674,4.771
	c-0.425,4.872-8.737,4.92-12.417,2.534c-3.028-1.965-1.84-6.251,1.438-5.807l1.608,0.219"/>
<path fill="none" stroke="#D47740" stroke-width="1.44" stroke-linecap="round" stroke-linejoin="round" stroke-miterlimit="22.9256" d="
	M30.409,9.979c2.713,0.252,4.225,1.303,4.213,3.866c-0.046,9.772-23.934,6.88-23.35-2.686c0.12-1.972,1.261-3.235,4.983-2.617"/>
</svg>
