<?xml version="1.0" encoding="utf-8"?>
<!-- Generator: Adobe Illustrator 15.1.0, SVG Export Plug-In . SVG Version: 6.00 Build 0)  -->
<!DOCTYPE svg PUBLIC "-//W3C//DTD SVG 1.1//EN" "http://www.w3.org/Graphics/SVG/1.1/DTD/svg11.dtd">
<svg version="1.1" id="Layer_1" xmlns="http://www.w3.org/2000/svg" xmlns:xlink="http://www.w3.org/1999/xlink" x="0px" y="0px"
	 width="45.339px" height="44.068px" viewBox="0 0 45.339 44.068" enable-background="new 0 0 45.339 44.068" xml:space="preserve">
<path fill="none" stroke="#D47740" stroke-width="1.44" stroke-linecap="round" stroke-linejoin="round" stroke-miterlimit="22.9256" d="
	M31.796,11.568v3.417c0,0.262-0.215,0.477-0.479,0.477h-3.416"/>
<path fill="none" stroke="#D47740" stroke-width="1.44" stroke-linecap="round" stroke-linejoin="round" stroke-miterlimit="22.9256" d="
	M24.317,11.568v3.417c0,0.262-0.215,0.477-0.477,0.477l-3.417,0.001"/>
<path fill="none" stroke="#D47740" stroke-width="1.44" stroke-linecap="round" stroke-linejoin="round" stroke-miterlimit="22.9256" d="
	M16.84,11.568v3.417c0,0.262-0.216,0.477-0.477,0.477h-3.417"/>
<path fill="none" stroke="#D47740" stroke-width="1.44" stroke-linecap="round" stroke-linejoin="round" stroke-miterlimit="22.9256" d="
	M16.84,26.241v3.417c0,0.263-0.216,0.478-0.477,0.478h-3.417"/>
<path fill="none" stroke="#D47740" stroke-width="1.44" stroke-linecap="round" stroke-linejoin="round" stroke-miterlimit="22.9256" d="
	M31.796,18.763v3.417c0,0.263-0.216,0.478-0.479,0.478h-3.416"/>
<path fill="none" stroke="#D47740" stroke-width="1.44" stroke-linecap="round" stroke-linejoin="round" stroke-miterlimit="22.9256" d="
	M24.317,18.763v3.417c0,0.263-0.215,0.478-0.477,0.478h-3.417"/>
<path fill="none" stroke="#D47740" stroke-width="1.44" stroke-linecap="round" stroke-linejoin="round" stroke-miterlimit="22.9256" d="
	M16.84,18.763v3.417c0,0.263-0.216,0.478-0.477,0.478h-3.417"/>
<path fill="none" stroke="#D47740" stroke-width="1.44" stroke-linecap="round" stroke-linejoin="round" stroke-miterlimit="22.9256" d="
	M31.796,26.241v3.417c0,0.263-0.216,0.478-0.479,0.478h-3.416"/>
<path fill="none" stroke="#D47740" stroke-width="1.44" stroke-linecap="round" stroke-linejoin="round" stroke-miterlimit="22.9256" d="
	M24.317,26.241v3.417c0,0.263-0.215,0.478-0.477,0.478h-3.417"/>
<path fill="none" stroke="#D47740" stroke-width="1.44" stroke-linecap="round" stroke-linejoin="round" stroke-miterlimit="22.9256" d="
	M20.935,7.417c0-0.54,0-1.079,0-1.619c0-1.478,3.74-1.476,3.74,0c0,0.54,0,1.079,0,1.619c0,2.596,4.362,2.708,4.362,0.199
	c0-1.477,3.74-1.476,3.74,0c0,0.26,0,0.52,0,0.779c0,1.359,0.608,0.685,1.692,1.769c1.176,1.177,0.322,1.692,1.898,1.692
	c0.303,0,0.605,0,0.908,0c1.475,0,1.477,3.74,0,3.74c-2.919,0-2.467,4.361-0.061,4.361c0.54,0,1.08,0,1.619,0
	c1.477,0,1.477,3.74,0,3.74c-0.539,0-1.079,0-1.619,0c-2.408,0-2.834,4.103,0.061,4.103c1.475,0,1.477,3.74,0,3.74
	c-2.92,0-1.021-0.095-2.807,1.691c-1.787,1.787-1.692-0.112-1.692,2.808c0,1.475-3.74,1.477-3.74,0c0-2.919-4.362-2.467-4.362-0.061
	c0,0.54,0,1.079,0,1.619c0,1.476-3.74,1.478-3.74,0c0-0.54,0-1.079,0-1.619c0-2.408-4.102-2.835-4.102,0.061
	c0,1.475-3.74,1.477-3.74,0c0-2.92,0.094-1.021-1.692-2.807c-1.695-1.695,0.071-1.692-2.548-1.692c-1.477,0-1.475-3.74,0-3.74
	c2.472,0,2.25-4.103-0.199-4.103c-0.54,0-1.08,0-1.62,0c-1.477,0-1.476-3.74,0-3.74c0.54,0,1.08,0,1.62,0
	c2.595,0,2.708-4.361,0.199-4.361c-1.477,0-1.475-3.74,0-3.74c0.26,0,0.52,0,0.779,0c1.359,0,0.685-0.609,1.769-1.693
	c1.083-1.083,1.692-0.409,1.692-1.768c0-0.26,0-0.52,0-0.779c0-1.477,3.74-1.476,3.74,0C16.833,10.094,20.935,9.974,20.935,7.417
	L20.935,7.417z"/>
</svg>
